<svg id="visual" viewBox="0 0 900 600" width="900" height="600" xmlns="http://www.w3.org/2000/svg" xmlns:xlink="http://www.w3.org/1999/xlink" version="1.1"><rect x="0" y="0" width="900" height="600" fill="#3a4454"></rect><path d="M0 340L30 344.8C60 349.7 120 359.3 180 362C240 364.7 300 360.3 360 361.7C420 363 480 370 540 372.3C600 374.7 660 372.3 720 366.3C780 360.3 840 350.7 870 345.8L900 341L900 601L870 601C840 601 780 601 720 601C660 601 600 601 540 601C480 601 420 601 360 601C300 601 240 601 180 601C120 601 60 601 30 601L0 601Z" fill="#3590f3" stroke-linecap="round" stroke-linejoin="miter"></path></svg>